<?xml version="1.0" encoding="UTF-8"?>
<svg version="1.1" xmlns="http://www.w3.org/2000/svg" width="300" height="116">
<path d="M0 0 C2.7196804 0.17546325 3.74010896 0.70892203 5.5625 2.75 C16.39432422 19.70415966 15.95432999 35.15011264 11.8125 54.375 C10.10669283 61.95369372 8.13827459 69.44371337 5.875 76.875 C5.63370361 77.68372559 5.39240723 78.49245117 5.14379883 79.32568359 C4.52691379 81.25120851 3.77495762 83.13247918 3 85 C1.515 85.495 1.515 85.495 0 86 C-17.45723907 32.56738069 -17.45723907 32.56738069 -9.28125 13.44140625 C-6.72348126 8.56760911 -3.9053769 3.9053769 0 0 Z " fill="#FFDC00" transform="translate(46,0)"/>
<path d="M0 0 C17 0 17 0 22 3 C24.67953508 7.01930262 24.69495566 10.27595619 24 15 C22.125 18.0625 22.125 18.0625 20 20 C19.34 20 18.68 20 18 20 C18.5775 20.91523437 19.155 21.83046875 19.75 22.7734375 C20.5002341 23.97381205 21.25022133 25.17434092 22 26.375 C22.3815625 26.97828125 22.763125 27.5815625 23.15625 28.203125 C26 32.7734375 26 32.7734375 26 35 C22.84198749 35.56844225 20.13572947 35.76095064 17 35 C13.31575286 31.38397966 11.01929393 27.05013811 10 22 C9.34 22 8.68 22 8 22 C8 26.29 8 30.58 8 35 C5.36 35 2.72 35 0 35 C0 23.45 0 11.9 0 0 Z M8 7 C8 9.64 8 12.28 8 15 C11.465 14.505 11.465 14.505 15 14 C15.67958603 11.60280568 15.67958603 11.60280568 16 9 C14.10244856 6.65026182 14.10244856 6.65026182 10.875 6.875 C9.92625 6.91625 8.9775 6.9575 8 7 Z " fill="#40403F" transform="translate(160,81)"/>
<path d="M0 0 C9.11818464 5.95946017 13.26769232 16.50030851 16.375 26.5 C16.83140109 29.170469 17.11837632 31.79948336 17.375 34.5 C15.15105599 32.38725319 13.38559267 30.19486091 11.625 27.6875 C6.83223893 21.25386753 1.02720493 16.21080134 -6.625 13.5 C-9.91993194 13.07890716 -9.91993194 13.07890716 -12.625 13.5 C-13.88972065 14.55429686 -13.88972065 14.55429686 -13.875 16.9375 C-13.75125 18.2059375 -13.75125 18.2059375 -13.625 19.5 C-12.635 20.16 -11.645 20.82 -10.625 21.5 C-10.955 22.16 -11.285 22.82 -11.625 23.5 C-16.01404703 22.87165352 -19.60337592 22.27244747 -23.1875 19.5625 C-25.37800148 14.89577945 -25.49317323 10.55672831 -24.625 5.5 C-18.494334 -3.41733236 -9.17487236 -3.79649891 0 0 Z " fill="#FFDC00" transform="translate(24.625,50.5)"/>
<path d="M0 0 C5.84858787 4.67887029 5.84858787 4.67887029 6.5390625 8.8984375 C6.71123799 13.6097851 6.34148199 17.03280694 3.1875 20.75 C-0.12945725 23.11925518 -3.83459653 23.29101114 -7.8125 23.75 C-7.4825 22.76 -7.1525 21.77 -6.8125 20.75 C-6.1525 20.42 -5.4925 20.09 -4.8125 19.75 C-4.8125 18.1 -4.8125 16.45 -4.8125 14.75 C-10.61322851 13.11066368 -14.00110035 14.15260691 -19.24609375 17.02734375 C-25.55017395 21.25884964 -31.0576796 26.58746696 -33.8125 33.75 C-34.4725 33.75 -35.1325 33.75 -35.8125 33.75 C-35.17028917 22.61834565 -30.10349954 10.5177636 -21.79296875 2.8984375 C-14.86272524 -2.52746744 -8.25420518 -3.66853564 0 0 Z " fill="#FFDC00" transform="translate(87.8125,50.25)"/>
<path d="M0 0 C16 0 16 0 22 3 C24.14721819 5.3550135 24.93766319 6.96105314 25.12890625 10.1484375 C24.89050821 14.49739563 24.36992656 16.54470577 21.5625 20 C16.9006142 23.63854501 13.81145354 23.08302076 8 23 C8 26.96 8 30.92 8 35 C5.36 35 2.72 35 0 35 C0 23.45 0 11.9 0 0 Z M8 7 C8 9.97 8 12.94 8 16 C10.91652174 16.16681109 10.91652174 16.16681109 14 16 C16.2491908 14.17296773 16.2491908 14.17296773 16.25 11.5 C16.2491908 8.82703227 16.2491908 8.82703227 14 7 C10.91652174 6.83318891 10.91652174 6.83318891 8 7 Z " fill="#40403F" transform="translate(126,81)"/>
<path d="M0 0 C2.97 0 5.94 0 9 0 C10.65 3.3 12.3 6.6 14 10 C16.48724903 6.68366796 18.23109915 3.70626844 20 0 C22.97 0 25.94 0 29 0 C28.52803945 3.90842329 27.14005803 6.66581695 25.1171875 10.01342773 C20.07420664 18.41655909 18.77789896 25.21367278 19 35 C16.03 35 13.06 35 10 35 C10.04833984 33.67162109 10.04833984 33.67162109 10.09765625 32.31640625 C10.00141499 22.0399782 7.11946659 15.28215366 1.93359375 6.484375 C0 3 0 3 0 0 Z " fill="#40403F" transform="translate(271,81)"/>
<path d="M0 0 C2.97 0 5.94 0 9 0 C9 9.57 9 19.14 9 29 C12.96 28.67 16.92 28.34 21 28 C20.67 30.31 20.34 32.62 20 35 C13.4 35 6.8 35 0 35 C0 23.45 0 11.9 0 0 Z " fill="#404040" transform="translate(221,81)"/>
<path d="M0 0 C2.64 0 5.28 0 8 0 C8 9.57 8 19.14 8 29 C14.435 28.505 14.435 28.505 21 28 C20.67 30.31 20.34 32.62 20 35 C13.4 35 6.8 35 0 35 C0 23.45 0 11.9 0 0 Z " fill="#40403F" transform="translate(249,81)"/>
<path d="M0 0 C2.97 0 5.94 0 9 0 C9 11.55 9 23.1 9 35 C6.03 35 3.06 35 0 35 C0 23.45 0 11.9 0 0 Z " fill="#40403F" transform="translate(198,81)"/>
<path d="M0 0 C3 1 3 1 4.16796875 3.07421875 C7.839819 12.48597285 7.839819 12.48597285 7 17 C5 19.875 5 19.875 3 22 C-0.19360415 21.74105912 -1.64346705 21.35653295 -3.9375 19.0625 C-5.94063245 13.28876529 -3.79489235 7.77322139 -1.375 2.375 C-0.694375 1.199375 -0.694375 1.199375 0 0 Z " fill="#FFDC00" transform="translate(46,94)"/>
<path d="M0 0 C7 0 7 0 9.9375 1.4375 C12.5640356 4.70077151 12.67360891 6.77068956 12.41015625 10.87109375 C12 13 12 13 10.5 15.5625 C8 17 8 17 0 17 C0 11.39 0 5.78 0 0 Z M3 3 C3 6.63 3 10.26 3 14 C4.65 13.67 6.3 13.34 8 13 C9.19988045 7.71800407 9.19988045 7.71800407 7 3 C5.68 3 4.36 3 3 3 Z " fill="#40403F" transform="translate(227,49)"/>
<path d="M0 0 C3.3 0 6.6 0 10 0 C10 0.99 10 1.98 10 3 C7.69 3 5.38 3 3 3 C3 4.32 3 5.64 3 7 C4.98 7 6.96 7 9 7 C9 7.99 9 8.98 9 10 C7.02 10 5.04 10 3 10 C3 11.32 3 12.64 3 14 C5.31 14 7.62 14 10 14 C10 14.99 10 15.98 10 17 C6.7 17 3.4 17 0 17 C0 11.39 0 5.78 0 0 Z " fill="#40403F" transform="translate(197,49)"/>
<path d="M0 0 C0.99 0 1.98 0 3 0 C3 11.88 3 23.76 3 36 C2.01 36 1.02 36 0 36 C0 24.12 0 12.24 0 0 Z " fill="#E32523" transform="translate(108,30)"/>
<path d="M0 0 C0.99 0 1.98 0 3 0 C3 11.55 3 23.1 3 35 C2.01 35 1.02 35 0 35 C0 23.45 0 11.9 0 0 Z " fill="#2E9A43" transform="translate(108,81)"/>
<path d="M0 0 C1.890625 0.24609375 1.890625 0.24609375 4 1 C5.44963687 3.55850089 6.10400905 6.1776285 7 9 C7.99 6.03 8.98 3.06 10 0 C10.99 0 11.98 0 13 0 C12.46246904 6.18160604 10.45417612 11.326858 8 17 C7.01 17 6.02 17 5 17 C4.16080602 14.73117913 3.32848276 12.46022973 2.5 10.1875 C2.26152344 9.54490234 2.02304688 8.90230469 1.77734375 8.24023438 C0.72931254 5.35066261 0 3.09923939 0 0 Z " fill="#40403F" transform="translate(126,49)"/>
<path d="M0 0 C5.61 0 11.22 0 17 0 C17 1.98 17 3.96 17 6 C11.39 6 5.78 6 0 6 C0 4.02 0 2.04 0 0 Z " fill="#FFDC00" transform="translate(39,87)"/>
<path d="M0 0 C2.97 0 5.94 0 9 0 C9 0.99 9 1.98 9 3 C7.02 3 5.04 3 3 3 C3 4.32 3 5.64 3 7 C4.65 7 6.3 7 8 7 C8 7.99 8 8.98 8 10 C6.35 10 4.7 10 3 10 C3 11.32 3 12.64 3 14 C4.98 14 6.96 14 9 14 C9 14.99 9 15.98 9 17 C6.03 17 3.06 17 0 17 C0 11.39 0 5.78 0 0 Z " fill="#40403F" transform="translate(248,49)"/>
<path d="M0 0 C0.99 0 1.98 0 3 0 C3 4.62 3 9.24 3 14 C4.98 14 6.96 14 9 14 C9 14.99 9 15.98 9 17 C6.03 17 3.06 17 0 17 C0 11.39 0 5.78 0 0 Z " fill="#404040" transform="translate(180,49)"/>
<path d="M0 0 C0.99 0 1.98 0 3 0 C3 4.62 3 9.24 3 14 C4.98 14 6.96 14 9 14 C9 14.99 9 15.98 9 17 C6.03 17 3.06 17 0 17 C0 11.39 0 5.78 0 0 Z " fill="#40403F" transform="translate(162,49)"/>
<path d="M0 0 C5.28722766 1.32180692 7.98958562 3.48437844 11 8 C11.07905064 10.33199388 11.08798769 12.66832622 11 15 C10.01 15 9.02 15 8 15 C5.36 10.05 2.72 5.1 0 0 Z " fill="#FFDC00" transform="translate(50,94)"/>
<path d="M0 0 C0.99 0.33 1.98 0.66 3 1 C1.55008333 3.33896022 0.09074592 5.67099268 -1.375 8 C-1.7875 8.66773437 -2.2 9.33546875 -2.625 10.0234375 C-3.69660955 11.71727194 -4.84330499 13.36308864 -6 15 C-6.66 15 -7.32 15 -8 15 C-8.59741978 9.02580218 -8.59741978 9.02580218 -6.9921875 6.26953125 C-4.87744341 3.70524575 -2.76690296 1.84460197 0 0 Z " fill="#FFDC00" transform="translate(41,94)"/>
<path d="M0 0 C0.99 0 1.98 0 3 0 C3 5.61 3 11.22 3 17 C2.01 17 1.02 17 0 17 C0 11.39 0 5.78 0 0 Z " fill="#404040" transform="translate(148,49)"/>
</svg>
