<?xml version="1.0" encoding="UTF-8"?>
<svg version="1.1" xmlns="http://www.w3.org/2000/svg" width="117" height="116">
<path d="M0 0 C2.7196804 0.17546325 3.74010896 0.70892203 5.5625 2.75 C16.39432422 19.70415966 15.95432999 35.15011264 11.8125 54.375 C10.10669283 61.95369372 8.13827459 69.44371337 5.875 76.875 C5.63370361 77.68372559 5.39240723 78.49245117 5.14379883 79.32568359 C4.52691379 81.25120851 3.77495762 83.13247918 3 85 C1.515 85.495 1.515 85.495 0 86 C-17.45723907 32.56738069 -17.45723907 32.56738069 -9.28125 13.44140625 C-6.72348126 8.56760911 -3.9053769 3.9053769 0 0 Z " fill="#FEDC00" transform="translate(46,0)"/>
<path d="M0 0 C9.11818464 5.95946017 13.26769232 16.50030851 16.375 26.5 C16.83140109 29.170469 17.11837632 31.79948336 17.375 34.5 C15.15105599 32.38725319 13.38559267 30.19486091 11.625 27.6875 C6.83223893 21.25386753 1.02720493 16.21080134 -6.625 13.5 C-9.91993194 13.07890716 -9.91993194 13.07890716 -12.625 13.5 C-13.88972065 14.55429686 -13.88972065 14.55429686 -13.875 16.9375 C-13.75125 18.2059375 -13.75125 18.2059375 -13.625 19.5 C-12.635 20.16 -11.645 20.82 -10.625 21.5 C-10.955 22.16 -11.285 22.82 -11.625 23.5 C-16.01404703 22.87165352 -19.60337592 22.27244747 -23.1875 19.5625 C-25.37800148 14.89577945 -25.49317323 10.55672831 -24.625 5.5 C-18.494334 -3.41733236 -9.17487236 -3.79649891 0 0 Z " fill="#FEDC00" transform="translate(24.625,50.5)"/>
<path d="M0 0 C5.84858787 4.67887029 5.84858787 4.67887029 6.5390625 8.8984375 C6.71123799 13.6097851 6.34148199 17.03280694 3.1875 20.75 C-0.12945725 23.11925518 -3.83459653 23.29101114 -7.8125 23.75 C-7.4825 22.76 -7.1525 21.77 -6.8125 20.75 C-6.1525 20.42 -5.4925 20.09 -4.8125 19.75 C-4.8125 18.1 -4.8125 16.45 -4.8125 14.75 C-10.61322851 13.11066368 -14.00110035 14.15260691 -19.24609375 17.02734375 C-25.55017395 21.25884964 -31.0576796 26.58746696 -33.8125 33.75 C-34.4725 33.75 -35.1325 33.75 -35.8125 33.75 C-35.17028917 22.61834565 -30.10349954 10.5177636 -21.79296875 2.8984375 C-14.86272524 -2.52746744 -8.25420518 -3.66853564 0 0 Z " fill="#FEDC00" transform="translate(87.8125,50.25)"/>
<path d="M0 0 C3 1 3 1 4.16796875 3.07421875 C7.839819 12.48597285 7.839819 12.48597285 7 17 C5 19.875 5 19.875 3 22 C-0.19360415 21.74105912 -1.64346705 21.35653295 -3.9375 19.0625 C-5.94063245 13.28876529 -3.79489235 7.77322139 -1.375 2.375 C-0.694375 1.199375 -0.694375 1.199375 0 0 Z " fill="#FEDC00" transform="translate(46,94)"/>
<path d="M0 0 C0.99 0 1.98 0 3 0 C3 11.88 3 23.76 3 36 C2.01 36 1.02 36 0 36 C0 24.12 0 12.24 0 0 Z " fill="#E22422" transform="translate(108,30)"/>
<path d="M0 0 C0.99 0 1.98 0 3 0 C3 11.55 3 23.1 3 35 C2.01 35 1.02 35 0 35 C0 23.45 0 11.9 0 0 Z " fill="#2E9A42" transform="translate(108,81)"/>
<path d="M0 0 C5.61 0 11.22 0 17 0 C17 1.98 17 3.96 17 6 C11.39 6 5.78 6 0 6 C0 4.02 0 2.04 0 0 Z " fill="#FEDC00" transform="translate(39,87)"/>
<path d="M0 0 C5.28722766 1.32180692 7.98958562 3.48437844 11 8 C11.07905064 10.33199388 11.08798769 12.66832622 11 15 C10.01 15 9.02 15 8 15 C5.36 10.05 2.72 5.1 0 0 Z " fill="#FEDE00" transform="translate(50,94)"/>
<path d="M0 0 C0.99 0.33 1.98 0.66 3 1 C1.55008333 3.33896022 0.09074592 5.67099268 -1.375 8 C-1.7875 8.66773437 -2.2 9.33546875 -2.625 10.0234375 C-3.69660955 11.71727194 -4.84330499 13.36308864 -6 15 C-6.66 15 -7.32 15 -8 15 C-8.59741978 9.02580218 -8.59741978 9.02580218 -6.9921875 6.26953125 C-4.87744341 3.70524575 -2.76690296 1.84460197 0 0 Z " fill="#FEDD00" transform="translate(41,94)"/>
</svg>
